<mxfile host="app.diagrams.net" modified="2024-04-21T01:55:46.511Z" agent="Mozilla/5.0 (Windows NT 10.0; Win64; x64) AppleWebKit/537.36 (KHTML, like Gecko) Chrome/124.0.0.0 Safari/537.36" etag="GktxkeyxEN3pM_8F9XwZ" version="23.0.2" type="github">
  <diagram name="Página-1" id="SXV49mqRJ-_ph_59XN_d">
    <mxGraphModel dx="1621" dy="1633" grid="1" gridSize="10" guides="1" tooltips="1" connect="1" arrows="1" fold="1" page="1" pageScale="1" pageWidth="827" pageHeight="1169" math="0" shadow="0">
      <root>
        <mxCell id="0" />
        <mxCell id="1" parent="0" />
        <mxCell id="v9VNiQ1xAd1rSoPBvD6Q-3" value="" style="edgeStyle=orthogonalEdgeStyle;rounded=0;orthogonalLoop=1;jettySize=auto;html=1;" edge="1" parent="1" source="2" target="v9VNiQ1xAd1rSoPBvD6Q-2">
          <mxGeometry relative="1" as="geometry" />
        </mxCell>
        <mxCell id="v9VNiQ1xAd1rSoPBvD6Q-5" value="" style="edgeStyle=orthogonalEdgeStyle;rounded=0;orthogonalLoop=1;jettySize=auto;html=1;" edge="1" parent="1" source="2" target="v9VNiQ1xAd1rSoPBvD6Q-4">
          <mxGeometry relative="1" as="geometry" />
        </mxCell>
        <mxCell id="v9VNiQ1xAd1rSoPBvD6Q-25" value="" style="edgeStyle=orthogonalEdgeStyle;rounded=0;orthogonalLoop=1;jettySize=auto;html=1;" edge="1" parent="1" source="2" target="v9VNiQ1xAd1rSoPBvD6Q-24">
          <mxGeometry relative="1" as="geometry" />
        </mxCell>
        <mxCell id="2" value="&lt;font style=&quot;font-size: 16px;&quot;&gt;&lt;b&gt;Projeto_HDsys&lt;/b&gt;&lt;br&gt;Protótipo-01&lt;br&gt;&lt;/font&gt;" style="whiteSpace=wrap;strokeWidth=2;labelBackgroundColor=default;html=1;rounded=1;shadow=0;glass=0;gradientColor=default;" parent="1" vertex="1">
          <mxGeometry x="-470" y="-330" width="158.5" height="67" as="geometry" />
        </mxCell>
        <mxCell id="v9VNiQ1xAd1rSoPBvD6Q-2" value="1. Ideação e Planejamento&lt;br&gt;JIRA/Trello/GitHub" style="shape=process;whiteSpace=wrap;html=1;backgroundOutline=1;strokeWidth=2;" vertex="1" parent="1">
          <mxGeometry x="-460" y="-440" width="138.5" height="63" as="geometry" />
        </mxCell>
        <mxCell id="v9VNiQ1xAd1rSoPBvD6Q-7" value="" style="edgeStyle=orthogonalEdgeStyle;rounded=0;orthogonalLoop=1;jettySize=auto;html=1;" edge="1" parent="1" source="v9VNiQ1xAd1rSoPBvD6Q-4" target="v9VNiQ1xAd1rSoPBvD6Q-6">
          <mxGeometry relative="1" as="geometry" />
        </mxCell>
        <mxCell id="v9VNiQ1xAd1rSoPBvD6Q-8" style="edgeStyle=orthogonalEdgeStyle;rounded=0;orthogonalLoop=1;jettySize=auto;html=1;entryX=0;entryY=0.5;entryDx=0;entryDy=0;" edge="1" parent="1" source="v9VNiQ1xAd1rSoPBvD6Q-4" target="v9VNiQ1xAd1rSoPBvD6Q-9">
          <mxGeometry relative="1" as="geometry">
            <mxPoint x="-40" y="-250" as="targetPoint" />
          </mxGeometry>
        </mxCell>
        <mxCell id="v9VNiQ1xAd1rSoPBvD6Q-4" value="2. Estruturar equipe e tarefas&lt;br&gt;JIRA/Trello/GitHub" style="shape=process;whiteSpace=wrap;html=1;backgroundOutline=1;strokeWidth=2;" vertex="1" parent="1">
          <mxGeometry x="-260" y="-330" width="140" height="67" as="geometry" />
        </mxCell>
        <mxCell id="v9VNiQ1xAd1rSoPBvD6Q-6" value="2.1. Delegar Tarefas em JIRA/Trello" style="rounded=1;whiteSpace=wrap;html=1;strokeWidth=2;" vertex="1" parent="1">
          <mxGeometry x="-70" y="-377" width="120" height="60" as="geometry" />
        </mxCell>
        <mxCell id="v9VNiQ1xAd1rSoPBvD6Q-9" value="2.2. Controle de tarefas&amp;nbsp;" style="rounded=1;whiteSpace=wrap;html=1;" vertex="1" parent="1">
          <mxGeometry x="-70" y="-280" width="120" height="60" as="geometry" />
        </mxCell>
        <mxCell id="v9VNiQ1xAd1rSoPBvD6Q-10" value="Boaz" style="shape=umlActor;verticalLabelPosition=bottom;verticalAlign=top;html=1;outlineConnect=0;" vertex="1" parent="1">
          <mxGeometry x="-310" y="-437" width="30" height="63" as="geometry" />
        </mxCell>
        <mxCell id="v9VNiQ1xAd1rSoPBvD6Q-15" value="Jean" style="shape=umlActor;verticalLabelPosition=bottom;verticalAlign=top;html=1;outlineConnect=0;" vertex="1" parent="1">
          <mxGeometry x="-321.5" y="-210" width="30" height="60" as="geometry" />
        </mxCell>
        <mxCell id="v9VNiQ1xAd1rSoPBvD6Q-16" value="Prof.Vinicius" style="shape=umlActor;verticalLabelPosition=bottom;verticalAlign=top;html=1;outlineConnect=0;" vertex="1" parent="1">
          <mxGeometry x="-205" y="-263" width="30" height="60" as="geometry" />
        </mxCell>
        <mxCell id="v9VNiQ1xAd1rSoPBvD6Q-27" value="" style="edgeStyle=orthogonalEdgeStyle;rounded=0;orthogonalLoop=1;jettySize=auto;html=1;" edge="1" parent="1" source="v9VNiQ1xAd1rSoPBvD6Q-24" target="v9VNiQ1xAd1rSoPBvD6Q-26">
          <mxGeometry relative="1" as="geometry" />
        </mxCell>
        <mxCell id="v9VNiQ1xAd1rSoPBvD6Q-29" value="" style="edgeStyle=orthogonalEdgeStyle;rounded=0;orthogonalLoop=1;jettySize=auto;html=1;" edge="1" parent="1" source="v9VNiQ1xAd1rSoPBvD6Q-24" target="v9VNiQ1xAd1rSoPBvD6Q-28">
          <mxGeometry relative="1" as="geometry" />
        </mxCell>
        <mxCell id="v9VNiQ1xAd1rSoPBvD6Q-30" value="" style="edgeStyle=orthogonalEdgeStyle;rounded=0;orthogonalLoop=1;jettySize=auto;html=1;" edge="1" parent="1" source="v9VNiQ1xAd1rSoPBvD6Q-24" target="v9VNiQ1xAd1rSoPBvD6Q-28">
          <mxGeometry relative="1" as="geometry" />
        </mxCell>
        <mxCell id="v9VNiQ1xAd1rSoPBvD6Q-31" value="" style="edgeStyle=orthogonalEdgeStyle;rounded=0;orthogonalLoop=1;jettySize=auto;html=1;" edge="1" parent="1" source="v9VNiQ1xAd1rSoPBvD6Q-24" target="v9VNiQ1xAd1rSoPBvD6Q-28">
          <mxGeometry relative="1" as="geometry" />
        </mxCell>
        <mxCell id="v9VNiQ1xAd1rSoPBvD6Q-33" value="" style="edgeStyle=orthogonalEdgeStyle;rounded=0;orthogonalLoop=1;jettySize=auto;html=1;" edge="1" parent="1" source="v9VNiQ1xAd1rSoPBvD6Q-24" target="v9VNiQ1xAd1rSoPBvD6Q-32">
          <mxGeometry relative="1" as="geometry" />
        </mxCell>
        <mxCell id="v9VNiQ1xAd1rSoPBvD6Q-24" value="3. Execução de tarefas de programação" style="shape=process;whiteSpace=wrap;html=1;backgroundOutline=1;" vertex="1" parent="1">
          <mxGeometry x="-450.75" y="-210" width="120" height="60" as="geometry" />
        </mxCell>
        <mxCell id="v9VNiQ1xAd1rSoPBvD6Q-26" value="Tar_1&lt;br&gt;Formulário de entrada de dados em JS (iFrame)" style="whiteSpace=wrap;html=1;" vertex="1" parent="1">
          <mxGeometry x="-570.75" y="-110" width="120" height="60" as="geometry" />
        </mxCell>
        <mxCell id="v9VNiQ1xAd1rSoPBvD6Q-28" value="Tar_2&lt;br&gt;Integração de Form. a Planilha Google/CSV" style="whiteSpace=wrap;html=1;" vertex="1" parent="1">
          <mxGeometry x="-450.75" y="-110" width="120" height="60" as="geometry" />
        </mxCell>
        <mxCell id="v9VNiQ1xAd1rSoPBvD6Q-32" value="Tar_3&lt;br&gt;Integrar CSV com Dash em JS" style="whiteSpace=wrap;html=1;" vertex="1" parent="1">
          <mxGeometry x="-330.75" y="-110" width="120" height="60" as="geometry" />
        </mxCell>
      </root>
    </mxGraphModel>
  </diagram>
</mxfile>
